<?xml version="1.0" encoding="utf-8"?>
<!-- Generator: Adobe Illustrator 16.0.0, SVG Export Plug-In . SVG Version: 6.00 Build 0)  -->
<!DOCTYPE svg PUBLIC "-//W3C//DTD SVG 1.1//EN" "http://www.w3.org/Graphics/SVG/1.1/DTD/svg11.dtd">
<svg version="1.1" id="Layer_1" xmlns="http://www.w3.org/2000/svg" xmlns:xlink="http://www.w3.org/1999/xlink" x="0px" y="0px"
	 width="792px" height="612px" viewBox="0 0 792 612" enable-background="new 0 0 792 612" xml:space="preserve">
<g>
	<path fill="#368ECD" d="M224.462,188.46c16.582,11.972,17.758,29.521,16.634,47.528c-1.488,23.853-9.111,46.645-12.943,70.106
		c-0.811,4.965-1.774,10.438,3.408,13.534c5.01,2.995,9.263-0.133,12.98-3.442c5.131-4.565,9.525-9.279,10.285-16.922
		c1.159-11.676,5.033-22.682,11.007-32.887c2.835-4.842,7.347-6.692,12.515-6.957c5.809-0.298,8.565,3.523,7.043,9.699
		c-1.553,6.293-3.511,12.487-5.258,18.734c-1.982,7.09-2.607,14.406-3.395,21.682c-0.266,2.453-0.139,5.021,0.275,7.458
		c0.518,3.056,1.921,5.934,5.194,6.758c3.122,0.786,5.416-1.3,7.26-3.479c4.054-4.791,6.42-10.426,7.828-16.518
		c2.36-10.217,4.739-20.43,7.24-30.612c1.868-7.613,7.535-11.126,14.662-12.495c5.808-1.114,8.878,2.26,7.87,8.023
		c-3.355,19.177-6.692,38.357-10.012,57.539c-0.246,1.42-1.055,3.216,0.457,4.151c1.557,0.963,2.735-0.677,3.889-1.523
		c7.053-5.177,12.788-11.675,18.037-18.582c2.377-3.13,3.771-2.929,5.738,0.336c6.729,11.16,6.889,11.278-2.79,20.281
		c-7.319,6.808-15.059,13.198-23.827,18.052c-4.951,2.74-6.07,7.077-6.946,11.926c-2.442,13.521-6.595,26.511-13.337,38.498
		c-5.68,10.102-13.301,18.396-24.762,22.092c-6.48,2.091-13.32,2.016-19.729,0.404c-10.392-2.611-14.498-15.24-9.227-26.333
		c6.018-12.655,14.844-23.264,24.414-33.285c6.67-6.985,13.533-13.791,21.112-19.825c1.161-0.925,2.241-2.005,3.147-3.175
		c0.816-1.054,1.524-2.504,0.389-3.63c-1.1-1.089-2.15,0.204-3.061,0.764c-9.257,5.685-18.401,7.125-28.006,0.432
		c-2.488-1.733-3.113-6.45-6.961-5.396c-2.748,0.752-5.017,3.179-7.562,4.759c-11.185,6.943-23.859,6.845-33.729-0.43
		c-5.696-4.197-8.506-10.102-8.986-17.087c-0.752-10.927,1.439-21.534,3.575-32.157c3.34-16.617,7.614-33.066,9.014-50.033
		c0.521-6.318,0.922-12.643-0.77-18.862c-1.423-5.23-4.577-7.038-9.815-5.416c-5.723,1.772-9.456,6.011-12.563,10.871
		c-6.989,10.926-11.101,23.085-14.691,35.398c-6.811,23.358-11.463,47.206-15.502,71.179c-1.233,7.315-7.174,11.979-14.551,11.429
		c-5.938-0.443-9.513-4.216-9.675-10.587c-0.289-11.299,3.239-22.015,5.33-32.94c4.472-23.363,9.664-46.618,8.687-70.657
		c-0.144-3.54-0.485-6.98-1.821-10.256c-2.061-5.05-6.403-6.287-10.884-3.104c-2.056,1.459-3.62,3.363-4.984,5.518
		c-15.75,24.874-25.667,52.199-33.839,80.262c-3.119,10.709-5.535,21.577-7.383,32.576c-0.8,4.766-3.521,7.748-8.34,8.79
		c-5.436,1.176-10.64,1.066-15.01-2.873c-1.706-1.538-1.833-3.839-1.792-6.056c0.127-6.88,1.743-13.512,3.296-20.158
		c5.577-23.871,9.155-48.039,10.766-72.5c0.394-5.973,0.874-11.94,1.308-17.911c0.4-5.507-2.187-7.399-7.244-5.176
		c-7.841,3.446-13.701,9.302-18.981,15.843c-2.405,2.978-4.966,4.716-7.964,0.638c0-2.333,0-4.666,0-6.999
		c1.524-1.662,1.866-3.867,2.686-5.853c4.236-10.272,9.13-20.249,19.428-25.722c14.091-7.489,27.576-2.167,29.915,13.848
		c1.621,11.094,0.676,22.187-1.471,33.193c-0.936,4.796-1.45,9.675-2.156,14.517c4.508-11.279,9.059-22.338,14.95-32.782
		c8.277-14.672,17.712-28.249,34.637-34.197c2.333,0,4.666,0,6.999,0c8.708,3.225,13.139,10.033,14.625,18.684
		c1.182,6.875,0.728,13.896,0.054,20.876c-0.466,4.831-1.972,9.617-1.235,14.958c1.754-1.674,1.837-3.573,2.407-5.231
		c2.866-8.334,5.777-16.587,10.371-24.244c6.927-11.543,16.333-19.964,28.771-25.043C215.797,188.46,220.129,188.46,224.462,188.46z
		 M288.992,365.165c-8.966,6.363-15.356,14.132-21.408,22.23c-2.899,3.88-5.457,7.944-6.994,12.581
		c-1.273,3.84,0.537,5.384,4.13,5.268c4.329-0.14,7.408-2.745,10.091-5.79c5.481-6.226,8.955-13.615,11.309-21.44
		C287.282,374.14,289.751,370.481,288.992,365.165z"/>
</g>
<g>
	<path fill="#FFFFFF" d="M755.1,315.692c-7.637,22.298-25.677,29.02-46.634,29.695c-24.138,0.777-48.32,0.168-72.484,0.145
		c-0.466,0-0.931-0.214-1.708-0.404c0-50.102,0-100.178,0-150.32c0.469-0.191,0.914-0.533,1.36-0.533
		c26.493-0.02,52.987-0.078,79.48,0.018c17.986,0.066,29.393,14.242,32.927,28.428c4.329,17.377-2.918,36.235-17.143,43.762
		c-0.534,0.283-0.962,0.768-1.354,1.089c4.499,2.794,9.006,5.194,13.063,8.202c6.689,4.957,9.722,12.4,12.492,19.92
		C755.1,302.359,755.1,309.026,755.1,315.692z M663.463,320.101c14.644,0,28.769,0.088,42.891-0.028
		c11.396-0.093,19.664-8.423,19.603-19.46c-0.063-11.502-8.309-19.861-19.765-19.911c-12.812-0.056-25.625-0.023-38.438,0.002
		c-1.421,0.003-2.841,0.212-4.29,0.329C663.463,294.089,663.463,306.687,663.463,320.101z M663.251,219.772
		c0,12.076,0.05,23.381-0.034,34.684c-0.022,2.933,1.641,3.115,3.869,3.1c7.823-0.056,15.649,0.078,23.471-0.057
		c5.472-0.094,11.051,0.092,16.38-0.917c8.762-1.659,13.753-9.851,13.156-20.172c-0.498-8.608-6.252-16.214-13.883-16.491
		C692.121,219.405,677.999,219.772,663.251,219.772z"/>
	<path fill="#FFFFFF" d="M557.1,192.692c8.252,1.68,16.762,2.594,24.687,5.248c8.55,2.863,16.554,7.357,25.228,11.338
		c-4.803,8.838-8.988,16.543-13.386,24.638c-9.308-6.696-19.202-11.981-30.353-13.423c-7.274-0.939-14.913-0.668-22.184,0.426
		c-7.114,1.068-11.369,6.635-11.991,12.944c-0.698,7.093,1.525,12.257,8.847,15.079c10.95,4.223,22.432,7.048,33.571,10.811
		c7.064,2.387,14.254,4.768,20.799,8.255c14.555,7.753,21.043,22.056,19.475,38.467c-2.092,21.882-16.33,35.24-38.438,38.968
		c-28.349,4.779-54.86-0.914-79.111-16.556c-0.545-0.353-1.001-0.843-1.871-1.587c4.264-8.36,8.524-16.715,12.892-25.277
		c11.597,8.575,24.025,14.337,37.735,17.102c8.716,1.758,17.494,2.275,26.185-0.342c5.623-1.693,9.932-4.795,10.863-11.035
		c0.92-6.158-0.797-11.75-6.532-14.421c-8.067-3.757-16.542-6.684-24.956-9.64c-8.611-3.025-17.646-4.992-25.995-8.584
		c-27.749-11.938-32.894-48.149-9.955-68.168c9.232-8.057,20.235-11.854,32.22-13.27c1.771-0.21,3.515-0.643,5.271-0.973
		C552.433,192.692,554.767,192.692,557.1,192.692z"/>
	<path fill="#FFFFFF" d="M342.217,194.437c9.585,0,19.025,0,29.162,0c0.094,1.883,0.265,3.791,0.274,5.7
		c0.138,26.827-0.094,53.661,0.528,80.477c0.288,12.42,4.16,24.04,14.265,32.361c18.652,15.361,46.973,6.715,54.455-17.14
		c2.69-8.578,3.677-17.951,3.88-26.996c0.517-22.986,0.15-45.994,0.139-68.994c-0.001-1.648,0-3.296,0-5.326
		c9.777,0,19.173,0,28.896,0c0.096,1.523,0.265,2.965,0.266,4.407c0.016,25.333,0.253,50.669-0.069,75.997
		c-0.236,18.498-4.11,36.194-16.397,50.749c-14.589,17.282-34.227,22.017-55.833,20.64c-19.716-1.257-35.839-9.367-47.313-25.841
		c-0.473-0.679-0.84-1.431-1.438-2.461c2.596-2.901,5.226-5.84,7.952-8.886c-1.851-2.781-3.572-5.365-5.479-8.23
		c-2.389,2.574-4.51,4.861-7.562,8.155c-1.734-7.257-3.578-13.538-4.66-19.948c-0.908-5.392-1.258-10.932-1.285-16.408
		c-0.124-24.832-0.049-49.666-0.029-74.498C341.969,197.047,342.116,195.899,342.217,194.437z"/>
	<path fill="#F2F2F2" d="M338.193,381.793c10.582-8.104,19.116-7.663,26.394,1.772c4.887-5.969,11.046-8.486,18.74-6.869
		c4.902,1.03,8.869,3.796,9.229,8.576c0.861,11.425,0.799,22.919,0.989,34.388c0.011,0.648-1.064,1.314-1.635,1.971
		c-0.647-0.939-1.837-1.867-1.856-2.818c-0.151-7.496-0.044-14.994-0.096-22.492c-0.017-2.322-0.113-4.668-0.463-6.959
		c-0.992-6.505-3.639-9.14-9.448-9.693c-6.214-0.591-11.49,2.146-13.076,7.709c-1.071,3.754-1.111,7.859-1.229,11.818
		c-0.188,6.326,0.06,12.666-0.163,18.99c-0.041,1.184-1.419,2.322-2.18,3.48c-0.633-1.117-1.795-2.227-1.815-3.355
		c-0.156-8.662-0.063-17.326-0.101-25.99c-0.034-8.324-2.834-11.983-9.572-12.647c-7.346-0.725-13.218,3.51-13.897,11.161
		c-0.778,8.766-0.491,17.621-0.874,26.43c-0.064,1.496-1.172,2.947-1.799,4.42c-0.686-1.523-1.943-3.039-1.967-4.572
		c-0.174-11.494-0.18-22.994-0.034-34.489c0.022-1.811,1.075-3.607,1.651-5.41C336,378.655,337.009,380.098,338.193,381.793z"/>
	<path fill="#F2F2F2" d="M707.076,417.219c6.832,0.693,12.198,1.494,17.585,1.668c2.364,0.076,4.98-0.721,7.113-1.832
		c4.771-2.482,5.385-8.061,1.312-11.572c-1.844-1.588-4.178-2.672-6.409-3.732c-2.09-0.994-4.361-1.6-6.514-2.473
		c-8.937-3.623-12.217-7.949-10.973-14.387c1.006-5.202,6.614-8.633,15.179-8.67c3.598-0.017,7.238,0.805,10.776,1.611
		c1.078,0.246,1.878,1.714,2.806,2.623c-1.231,0.315-2.473,0.932-3.692,0.892c-5.058-0.163-10.183-1.138-15.129-0.539
		c-2.244,0.271-5.673,3.433-5.783,5.436c-0.135,2.452,2.063,5.962,4.295,7.411c3.973,2.58,8.757,3.893,13.149,5.85
		c6.46,2.877,9.388,6.873,8.843,11.836c-0.64,5.828-4.323,10.061-11.246,10.791c-5.685,0.6-11.56-0.168-17.296-0.814
		C709.807,421.172,708.75,419.002,707.076,417.219z"/>
	<path fill="#F2F2F2" d="M529.59,417.496c4.407-11.664,8.561-22.666,12.726-33.667c0.529-1.398,0.902-2.926,1.74-4.119
		c0.707-1.006,1.983-1.613,3.008-2.396c0.165,1.152,0.788,2.477,0.428,3.428c-4.887,12.909-9.862,25.786-14.985,38.601
		c-0.426,1.066-2.02,2.166-3.167,2.277c-0.862,0.086-2.36-1.197-2.751-2.195c-5.278-13.469-10.416-26.992-15.562-40.515
		c-0.156-0.413-0.02-0.938,1.055-2.281c1.159,1.304,2.803,2.418,3.4,3.942c4.312,10.992,8.409,22.066,12.58,33.111
		C528.461,414.74,528.902,415.783,529.59,417.496z"/>
	<path fill="#F2F2F2" d="M586.5,399.201c-0.002-5.982-0.107-11.967,0.078-17.944c0.043-1.363,1.094-2.696,1.68-4.043
		c0.65,1.25,1.852,2.493,1.867,3.75c0.152,12.298,0.166,24.595,0.033,36.892c-0.014,1.264-1.237,2.518-1.898,3.775
		c-0.586-1.328-1.638-2.643-1.678-3.986C586.4,411.502,586.502,405.35,586.5,399.201z"/>
	<path fill="#F2F2F2" d="M585.071,364.389c1.38-1.464,2.328-2.469,3.276-3.474c0.885,1.146,2.559,2.368,2.457,3.419
		c-0.133,1.369-1.674,2.603-2.609,3.894C587.303,367.131,586.41,366.034,585.071,364.389z"/>
	<path fill="#F2F2F2" d="M659.537,377.673c-7.663-3.425-17.361-1.434-21.659,5.795c-2.737,4.604-4.441,10.421-4.711,15.788
		c-1.074,21.383,14.921,26.979,31.721,21.676c1.219-0.385,2.08-1.898,3.108-2.889c-22.806,3.092-32.242-2.201-30.515-17.977
		c1.707-0.078,3.492-0.223,5.277-0.229c7.479-0.029,14.962,0.104,22.434-0.127c1.352-0.043,3.595-1.299,3.837-2.357
		C670.729,389.924,666.04,380.579,659.537,377.673z M664.926,396.473c-9.196,0-18.106,0-26.994,0
		c-0.647-9.681,5.645-16.908,14.356-16.825C660.368,379.724,665.512,386.333,664.926,396.473z"/>
	<path fill="#F2F2F2" d="M474.945,394.148c-1.111-10.306-7.873-16.981-18.103-17.956c-9.341-0.889-18.296,4.826-19.988,14.313
		c-1.1,6.16-0.795,12.947,0.561,19.08c1.904,8.613,8.599,12.963,17.182,13.043c9.832,0.09,16.291-4.049,19.121-12.701
		c1.018-3.111,1.24-6.484,1.59-8.426C475.149,398.133,475.158,396.129,474.945,394.148z M470.451,406.016
		c-1.829,9.355-7.113,13.365-16.387,13.033c-7.477-0.27-12.747-5.572-14.001-14.213c-0.285-1.963-0.267-3.969-0.351-5.35
		c0.238-10.455,3.653-16.553,10.223-18.833c10.441-3.623,19.37,2.395,20.974,14.513C471.378,398.709,471.14,402.492,470.451,406.016
		z"/>
</g>
</svg>
